<svg width="100%" height="100%" viewBox="0 0 1024 1024" version="1.1" xmlns="http://www.w3.org/2000/svg" xmlns:xlink="http://www.w3.org/1999/xlink" xml:space="preserve" xmlns:serif="http://www.serif.com/" style="fill-rule:evenodd;clip-rule:evenodd;stroke-linecap:round;stroke-linejoin:round;stroke-miterlimit:1.5;"><g><path d="M113.55,231.032c-17.159,29.456 -31.375,60.664 -42.873,92.393c-29.744,82.079 -27.791,171.696 -22.686,257.495c2.57,43.181 6.927,86.295 13.193,129.123" style="fill:none;stroke:#000;stroke-width:37.5px;"/><path d="M958,648.553c-15.887,-20.5 -27.969,-43.679 -38.665,-67.206c-24.902,-54.777 -48.806,-110.003 -73.385,-164.925c-30.461,-68.066 -61.959,-135.085 -104.597,-196.544c-44.47,-64.099 -109.985,-115.601 -180.035,-148.979c-74.386,-35.444 -160.067,-39.442 -237.636,-15.77" style="fill:none;stroke:#000;stroke-width:37.5px;"/><path d="M232.788,915.26c-9.999,-27.475 -19.402,-55.167 -28.153,-83.069c-25.293,-80.65 -45.805,-163.27 -53.515,-247.638" style="fill:none;stroke:#000;stroke-width:37.5px;"/><path d="M312.62,957.5c-6.741,-15.828 -13.305,-31.928 -19.943,-48.57c-14.933,-37.437 -31.028,-82.619 -42.662,-121.218c-6.713,-22.272 -13.079,-44.665 -18.58,-67.268c-5.598,-22.996 -10.224,-46.224 -14.7,-69.464c-3.457,-17.953 -7.838,-51.761 -9.282,-69.98c-8.268,-104.308 3.559,-227.172 89.022,-299.135c16.123,-13.577 30.33,-24.467 49.118,-34.219c26.61,-13.812 48.495,-22.289 77.572,-29.646" style="fill:none;stroke:#000;stroke-width:37.5px;"/><path d="M389.825,978.965c-35.637,-70.638 -65.251,-144.313 -90.371,-219.292c-21.403,-63.881 -34.374,-130.192 -39.155,-197.374c-4.829,-67.868 2.935,-141.465 42.673,-198.613c53.809,-77.385 157.116,-128.069 251.138,-102.569c37.505,10.172 70.925,32.382 98.258,59.594c35.855,35.696 61.073,80.679 79.664,127.373c31.664,79.528 47.501,168.206 103.605,235.78c24.169,29.111 56.496,53.091 92.218,67.447" style="fill:none;stroke:#000;stroke-width:37.5px;"/><path d="M467.148,996.59c-37.646,-67.958 -69.661,-139.083 -99.107,-210.868c-37.928,-92.46 -80.901,-195.969 -53.964,-297.498c19.945,-75.177 77.707,-145.248 154.412,-166.613c36.804,-10.251 78.855,-9.891 111.518,12.005c41.269,27.666 66.608,72.457 87.794,116.076c38.118,78.48 56.725,165.668 102.677,240.452c14.661,23.859 30.045,48.571 52.282,66.31c21.657,17.277 46.025,31.814 71.913,42.659" style="fill:none;stroke:#000;stroke-width:37.5px;"/><path d="M532.773,996.59c-35.074,-61.258 -66.264,-124.74 -93.311,-189.941c-15.557,-37.502 -28.891,-73.743 -40.441,-112.683c-22.132,-74.617 -37.58,-153.631 -12.041,-229.503c2.991,-8.886 9.758,-21.531 15.413,-28.971c27.126,-35.693 68.129,-74.568 117.132,-60.065c7.01,2.074 17.08,7.02 23.051,11.227c72.837,51.303 96.764,145.84 125.939,223.718c8.175,21.822 20.782,49.666 31.603,70.288c35.319,67.308 87.19,135.199 158.042,164.147" style="fill:none;stroke:#000;stroke-width:37.5px;"/><path d="M712.999,946.399c-1.129,-1.264 -2.243,-2.528 -3.34,-3.79c-9.988,-11.489 -19.402,-23.479 -28.571,-35.632c-21.248,-28.161 -40.217,-55.85 -57.599,-86.583c-13.215,-23.365 -26.055,-46.966 -37.876,-71.067c-11.822,-24.101 -22.727,-48.661 -33.015,-73.456c-22.4,-53.993 -36.239,-96.099 -53.598,-151.871c-2.678,-8.603 5.695,17.106 9,25.489c8.694,22.053 17.707,43.982 26.989,65.794c20.623,48.461 45.888,94.862 74.189,139.245c40.165,62.989 88.202,127.802 149.428,172.666" style="fill:none;stroke:#000;stroke-width:37.5px;"/><path d="M658.798,972.125c-25.055,-34.033 -47.446,-69.978 -65.798,-108.125" style="fill:none;stroke:#000;stroke-width:37.5px;"/><path d="M605.937,988.423c-37.632,-59.853 -71.882,-121.838 -101.731,-185.942c-26.76,-57.472 -31.269,-70.507 -51.056,-130.703c-15.453,-47.014 -27.986,-98.059 -16.56,-147.46c1.666,-7.2 3.362,-14.444 6.033,-21.335c2.711,-6.998 6.125,-13.75 10.042,-20.151c13.641,-22.293 41.881,-50.681 70.548,-35.892c3.471,1.791 6.525,4.324 9.529,6.82c20.909,17.37 26.475,46.773 34.971,70.802c14.53,41.096 23.185,65.229 41.281,104.923c14.085,30.892 28.637,57.229 45.479,86.675c37.743,65.992 84.871,135.556 149.218,177.621" style="fill:none;stroke:#000;stroke-width:37.5px;"/><path d="M739.953,464.698c-16.794,-38.622 -37.997,-75.172 -59.731,-111.161c-42.984,-71.18 -96.834,-151.628 -180.601,-178.376c-24.649,-7.87 -50.76,-10.647 -76.558,-10.204c-19.285,0.332 -38.402,2.536 -57.149,6.99c-29.026,6.895 -56.692,18.987 -81.803,35.041c-30.638,19.587 -57.184,45.064 -79.92,73.34c-36.744,45.696 -63.072,98.926 -83.053,153.777c-22.11,60.696 -20.494,128.18 -12.602,191.261c9.542,76.269 21.103,145.587 42.584,219.441" style="fill:none;stroke:#000;stroke-width:37.5px;"/><path d="M950.833,704.801c-33.767,-12.816 -58.703,-42.716 -77.28,-72.741c-22.525,-36.405 -37.241,-76.935 -52.948,-116.502c-24.565,-61.88 -24.881,-65.73 -51.401,-126.817c-14.927,-34.385 -34.326,-66.686 -55.681,-97.432c-46.538,-67.003 -103.152,-131.588 -178.606,-166.432c-33.986,-15.694 -71.609,-23.797 -109.08,-22.41c-28.04,1.038 -48.654,3.62 -75.695,11.336c-28.506,8.134 -44.708,16.167 -70.735,30.124c-112.408,60.28 -161.476,192.912 -171.965,313.39c-3.283,37.707 -7.286,76.607 -3.672,114.349" style="fill:none;stroke:#000;stroke-width:37.5px;"/><path d="M637.383,36.751c34.101,19.88 64.766,46.092 92.563,73.94c66.016,66.139 115.615,147.222 156.811,230.545c29.163,58.983 78.889,163.574 108.523,222.327" style="fill:none;stroke:#000;stroke-width:37.5px;"/><path d="M865.183,170.096c38.097,53.551 67.77,112.669 94.639,172.501c10.337,23.016 20.529,46.109 30.705,69.213" style="fill:none;stroke:#000;stroke-width:37.5px;"/></g></svg>